<?xml version="1.0" standalone="no"?>
<!DOCTYPE svg PUBLIC "-//W3C//DTD SVG 20010904//EN"
 "http://www.w3.org/TR/2001/REC-SVG-20010904/DTD/svg10.dtd">
<svg version="1.0" xmlns="http://www.w3.org/2000/svg"
 width="700.000000pt" height="700.000000pt" viewBox="0 0 700.000000 700.000000"
 preserveAspectRatio="xMidYMid meet">
<metadata>
Created by potrace 1.14, written by Peter Selinger 2001-2017
</metadata>
<g transform="translate(0.000000,700.000000) scale(0.100000,-0.100000)"
fill="#000000" stroke="none">
<path d="M3435 6411 c-16 -4 -47 -15 -67 -25 -23 -11 -329 -310 -802 -783
-576 -576 -770 -777 -787 -812 -15 -31 -23 -69 -25 -115 -7 -166 118 -296 286
-299 123 -1 117 -6 673 549 l497 497 1 -1419 c0 -780 2 -1429 5 -1442 22 -122
147 -224 274 -226 93 -1 146 20 209 83 99 98 91 -43 91 1584 l0 1420 494 -494
c543 -543 553 -551 663 -552 86 -1 158 27 213 83 89 88 113 220 60 333 -30 64
-1532 1567 -1596 1597 -49 23 -143 33 -189 21z"/>
<path d="M820 2911 c-89 -18 -175 -86 -213 -169 -21 -47 -21 -53 -21 -727 0
-673 1 -681 23 -764 87 -325 327 -563 649 -643 l87 -22 2160 0 c2036 0 2164 1
2225 17 209 57 351 144 477 290 101 118 175 278 200 437 4 25 7 342 7 705 l0
660 -24 50 c-31 63 -89 121 -148 147 -69 30 -172 29 -237 -2 -62 -30 -121 -89
-148 -149 -20 -45 -21 -60 -22 -677 -1 -347 -5 -647 -9 -667 -16 -88 -97 -180
-187 -213 -40 -15 -227 -16 -2139 -16 -1895 0 -2099 1 -2138 16 -85 31 -153
102 -182 190 -10 30 -13 188 -14 680 -2 633 -2 642 -24 689 -54 118 -196 192
-322 168z"/>
</g>
</svg>
